<svg xmlns="http://www.w3.org/2000/svg" viewBox="0 0 112.71 122.08"><defs><style>.cls-1{font-size:21px;font-family:BodoniSevITC-Book, Bodoni Seventytwo ITC;}.cls-1,.cls-2{fill:#fff;}</style></defs><title>gym-logo</title><g id="Layer_2" data-name="Layer 2"><g id="Layer_1-2" data-name="Layer 1"><text class="cls-1" transform="translate(35.07 95.49)">GYM </text><text class="cls-1" transform="translate(0 116.49)">EQUIPMENT</text><path class="cls-2" d="M-726.52-1593.55l19.66-19.65h42l19.67,19.65-40.67,40.67Zm63.6-24.32H-708.8l-24.31,24.32,47.26,47.26,47.26-47.26Z" transform="translate(742.46 1617.87)"/><path class="cls-2" d="M-677.89-1609.27c-6.2,0-10.79,4.65-10.79,15.7v3.16h-5v1.49h5v22.6h-5v1.49h15.24v-1.49h-5.23v-22.6h5.23v-1.49h-5.23v-7.3c0-6.45,2-10.2,5.1-10.2.45,0,1.55.07,1.55.39,0,.84-.51.9-.51,1.61,0,1.75.9,3,2.64,3a2.33,2.33,0,0,0,2.39-2.13C-672.47-1608.1-675.37-1609.27-677.89-1609.27Z" transform="translate(742.46 1617.87)"/><path class="cls-2" d="M-669.75-1592.1a2.34,2.34,0,0,0-2.33,2.34,2.33,2.33,0,0,0,2.33,2.33,2.33,2.33,0,0,0,2.34-2.33A2.34,2.34,0,0,0-669.75-1592.1Z" transform="translate(742.46 1617.87)"/></g></g></svg>